<svg xmlns="http://www.w3.org/2000/svg" xmlns:xlink="http://www.w3.org/1999/xlink" viewBox="0 0 24 30" version="1.1" x="0px" y="0px"><title>icon/cloud</title><desc>Created with Sketch.</desc><g stroke="none" stroke-width="1" fill="none" fill-rule="evenodd"><path d="M22,13 C22,15.2091424 20.2091424,17 18,17 L4.5,17 C2.56685763,17 1,15.4331424 1,13.5 C1,11.7239857 2.32249726,10.2571319 4.03652026,10.0304102 C4.26183947,8.59641976 5.50261574,7.5 7,7.5 C7.197218,7.5 7.39194744,7.52223335 7.58796599,7.56493105 C8.69862092,5.97601848 10.5148356,5 12.5,5 C15.0713503,5 17.3182706,6.63434778 18.1535515,9.00289297 C20.2915341,9.08358837 22,10.8422738 22,13 Z M18,16 C19.6568576,16 21,14.6568576 21,13 C21,11.3431424 19.6568576,10 18,10 C17.9976158,10 17.9875985,10.0010363 17.9546358,10.005689 C17.900981,10.0134051 17.8651942,10.0176903 17.8215249,10.0201857 C17.586892,10.0335933 17.3745906,9.88178519 17.3114081,9.6554219 C16.7127398,7.51057948 14.7559008,6 12.5,6 C10.7378826,6 9.13607006,6.92279145 8.23300034,8.40513594 C8.1109293,8.60550954 7.86595031,8.69405089 7.64398068,8.61802192 C7.41524724,8.53967622 7.20533464,8.5 7,8.5 C5.89514237,8.5 5,9.39514237 5,10.5 C5,10.7761424 4.77614237,11 4.5,11 C3.11914237,11 2,12.1191424 2,13.5 C2,14.8808576 3.11914237,16 4.5,16 L18,16 Z" fill="#000000" fill-rule="nonzero"/></g><text x="0" y="39" fill="#000000" font-size="5px" font-weight="bold" font-family="'Helvetica Neue', Helvetica, Arial-Unicode, Arial, Sans-serif">Created by Travis Avery</text><text x="0" y="44" fill="#000000" font-size="5px" font-weight="bold" font-family="'Helvetica Neue', Helvetica, Arial-Unicode, Arial, Sans-serif">from the Noun Project</text></svg>