<svg xmlns="http://www.w3.org/2000/svg" xmlns:xlink="http://www.w3.org/1999/xlink" version="1.1" x="0px" y="0px" viewBox="0 0 100 125" style="enable-background:new 0 0 100 100;" xml:space="preserve"><path d="M36.3,63.4L36.3,63.4c-2.7-1.2-4.2-3.9-4.2-6.7c0-1,0.2-2.1,0.7-3.1c0.3-0.6,0-1.4-0.6-1.7c-0.6-0.3-1.4,0-1.7,0.6  c-0.6,1.4-0.9,2.8-0.9,4.2c0,3.7,2.1,7.3,5.7,9c0.6,0.3,1.4,0,1.7-0.6C37.2,64.5,37,63.7,36.3,63.4z M65.6,54.8  c-0.7,0.1-1.2,0.8-1,1.5c0.1,0.3,0.1,0.7,0.1,1c0,1.4-0.5,2.8-1.6,3.8c-1.1,1.1-2.4,1.6-3.8,1.6c-0.9,0-1.7-0.2-2.5-0.6  c-0.4-0.2-0.9-0.2-1.3,0c-0.4,0.2-0.6,0.6-0.6,1.1c0,0.9-0.3,1.7-1,2.4c-0.7,0.7-1.6,1-2.4,1c-0.5,0-0.9-0.1-1.4-0.3  c-0.7-0.3-1.4,0-1.7,0.7s0,1.4,0.7,1.7l0,0c0.8,0.3,1.6,0.5,2.4,0.5c1.5,0,3.1-0.6,4.3-1.8c0.7-0.7,1.2-1.6,1.5-2.5  c0.7,0.2,1.4,0.3,2.1,0.3c2,0,4.1-0.8,5.7-2.3c1.6-1.6,2.3-3.6,2.3-5.7c0-0.5,0-1-0.1-1.5C67,55.1,66.3,54.7,65.6,54.8z M51.3,35.2  c3.3,0,6,2.5,6.2,5.7c0,0.5,0.3,0.9,0.7,1.1c0.4,0.2,0.9,0.1,1.3-0.1c0.8-0.5,1.7-0.8,2.6-0.8c0.2,0,0.5,0,0.7,0.1  c0.7,0.1,1.4-0.4,1.5-1.1c0.1-0.7-0.4-1.4-1.1-1.5h0c-0.4-0.1-0.8-0.1-1.2-0.1c-0.8,0-1.6,0.2-2.4,0.4c-1.1-3.6-4.5-6.3-8.5-6.3  c-0.7,0-1.3,0.6-1.3,1.3C50.1,34.6,50.6,35.2,51.3,35.2z M75.5,48.1c0.5-1.4,0.8-2.9,0.8-4.4c0-3.2-1.2-6.3-3.6-8.8  c-1.8-1.8-4-2.9-6.3-3.4c-2.7-6.2-8.9-10.5-16-10.5c-7.2,0-13.4,4.4-16.1,10.6c-5.6,1.2-9.8,6.1-9.8,12.1c0,1.1,0.1,2.1,0.4,3.1  c-0.8,1-1.5,2.1-2.1,3.4c-1.1,2.3-1.6,4.8-1.6,7.2c0,6.4,3.6,12.5,9.8,15.4c2.3,1.1,4.8,1.6,7.2,1.6c1.1,0,2.2-0.1,3.3-0.3  c0.1,0.1,0.2,0.2,0.3,0.3c2.4,2.4,5.6,3.6,8.8,3.6c3.2,0,6.4-1.2,8.8-3.6c0.1-0.1,0.1-0.2,0.2-0.2c0.7,0.1,1.3,0.1,2,0.1  c4.3,0,8.7-1.7,12-5c3.3-3.3,5-7.7,5-12C78.3,54.2,77.4,51,75.5,48.1z M71.5,67.6c-2.8,2.8-6.5,4.2-10.2,4.2c-0.8,0-1.6-0.1-2.3-0.2  c-0.4-0.1-0.9,0.1-1.2,0.4c-0.2,0.2-0.4,0.4-0.5,0.6c-1.9,1.9-4.4,2.9-6.9,2.9c-2.5,0-5-1-6.9-2.9c-0.2-0.2-0.4-0.4-0.6-0.7  c-0.3-0.4-0.8-0.5-1.3-0.4c-1.1,0.3-2.3,0.4-3.4,0.4c-2,0-4.1-0.4-6.1-1.4c-5.2-2.5-8.3-7.6-8.3-13.1c0-2,0.4-4.1,1.4-6.1  c0.6-1.2,1.3-2.4,2.2-3.3c0.3-0.3,0.4-0.8,0.3-1.2c-0.3-1-0.5-2-0.5-3c0-4.9,3.6-9,8.4-9.7c0.5-0.1,0.8-0.4,1-0.8  c2.2-5.6,7.6-9.6,14-9.6c6.3,0,11.7,3.9,13.9,9.5c0.2,0.4,0.6,0.7,1,0.8c2,0.3,4,1.2,5.6,2.8c1.9,1.9,2.9,4.4,2.9,6.9  c0,1.4-0.3,2.7-0.8,4c-0.2,0.4-0.1,0.9,0.1,1.3c1.8,2.5,2.7,5.5,2.7,8.4C75.7,61.1,74.3,64.8,71.5,67.6z M24.8,29.7  c0.6-0.4,0.8-1.2,0.4-1.8c-0.4-0.6-1.2-0.8-1.8-0.4c-3.9,2.4-6.6,6.4-7.3,11.1c-0.1,0.7,0.4,1.4,1.1,1.5c0.7,0.1,1.4-0.4,1.5-1.1  C19.2,35,21.5,31.7,24.8,29.7z M84.9,40c0.7-0.1,1.2-0.8,1-1.5c-0.6-3-2-5.9-4.3-8.2c-0.5-0.5-1.3-0.5-1.8,0c-0.5,0.5-0.5,1.3,0,1.8  c2,2,3.2,4.4,3.6,6.9C83.5,39.6,84.2,40.1,84.9,40z M55.3,85.8c-1.6,0.6-3.2,0.9-4.9,0.9c-2.7,0-5.5-0.9-7.8-2.7  c-0.6-0.4-1.4-0.3-1.8,0.2c-0.4,0.6-0.3,1.4,0.2,1.8c2.7,2.1,6,3.3,9.4,3.3c2,0,3.9-0.3,5.8-1c0.7-0.3,1-1,0.7-1.7  S55.9,85.6,55.3,85.8z M45.6,17.1c0.7-0.1,1.2-0.8,1.1-1.5l-0.6-3.9c-0.1-0.7-0.8-1.2-1.5-1.1c-0.7,0.1-1.2,0.8-1.1,1.5l0.6,3.9  C44.2,16.8,44.9,17.3,45.6,17.1z M61.3,17.9c0.6,0.4,1.4,0.2,1.8-0.4l1.3-2.1c0.4-0.6,0.2-1.4-0.4-1.8c-0.6-0.4-1.4-0.2-1.8,0.4  l-1.3,2.1C60.5,16.8,60.7,17.6,61.3,17.9z M73.1,26.6l0.9-0.7c0.6-0.4,0.7-1.3,0.2-1.8c-0.4-0.6-1.3-0.7-1.8-0.2l-0.9,0.7  c-0.6,0.4-0.7,1.3-0.2,1.8C71.8,27,72.6,27.1,73.1,26.6z M30.1,23.5c0.5,0.5,1.4,0.4,1.8-0.2c0.5-0.5,0.4-1.4-0.2-1.8l-1.5-1.3  c-0.5-0.5-1.4-0.4-1.8,0.2c-0.5,0.5-0.4,1.4,0.2,1.8L30.1,23.5z M12.3,49l1.3,0.3c0.7,0.1,1.4-0.3,1.5-1c0.1-0.7-0.3-1.4-1-1.5  l-1.3-0.3c-0.7-0.1-1.4,0.3-1.5,1C11.1,48.2,11.6,48.8,12.3,49z M31.8,80c-0.6-0.4-1.4-0.1-1.8,0.5l-2.1,3.8  c-0.4,0.6-0.1,1.4,0.5,1.8c0.6,0.4,1.4,0.1,1.8-0.5l2.1-3.8C32.7,81.1,32.5,80.3,31.8,80z M14.2,62.9l-2.7,0.8  c-0.7,0.2-1.1,0.9-0.9,1.6c0.2,0.7,0.9,1.1,1.6,0.9l2.7-0.8c0.7-0.2,1.1-0.9,0.9-1.6C15.6,63.1,14.8,62.7,14.2,62.9z M20.8,74.5  l-0.7,0.9c-0.5,0.5-0.4,1.4,0.2,1.8c0.5,0.5,1.4,0.4,1.8-0.2l0.7-0.9c0.5-0.5,0.4-1.4-0.2-1.8C22.1,73.9,21.3,74,20.8,74.5z   M66.8,82.6c-0.2-0.7-0.9-1.1-1.6-0.9c-0.7,0.2-1.1,0.9-0.9,1.6l0.3,1c0.2,0.7,0.9,1.1,1.6,0.9c0.7-0.2,1.1-0.9,0.9-1.6L66.8,82.6z   M76,76.7c-0.5-0.5-1.3-0.5-1.8,0s-0.5,1.3,0,1.8l2.4,2.5c0.5,0.5,1.3,0.5,1.8,0s0.5-1.3,0-1.8L76,76.7z M84.4,68.1l-1.3-0.4  c-0.7-0.2-1.4,0.2-1.6,0.9c-0.2,0.7,0.2,1.4,0.9,1.6l1.3,0.4c0.7,0.2,1.4-0.2,1.6-0.9C85.5,69.1,85.1,68.3,84.4,68.1z M88.4,46.6  l-3.7,0.6c-0.7,0.1-1.2,0.8-1.1,1.5s0.8,1.2,1.5,1.1l3.7-0.6c0.7-0.1,1.2-0.8,1.1-1.5S89.1,46.5,88.4,46.6z"/><text x="0" y="115" fill="#000000" font-size="5px" font-weight="bold" font-family="'Helvetica Neue', Helvetica, Arial-Unicode, Arial, Sans-serif">Created by Arthur Leshchuk</text><text x="0" y="120" fill="#000000" font-size="5px" font-weight="bold" font-family="'Helvetica Neue', Helvetica, Arial-Unicode, Arial, Sans-serif">from the Noun Project</text></svg>