<svg xmlns:dc="http://purl.org/dc/elements/1.1/" xmlns:cc="http://creativecommons.org/ns#" xmlns:rdf="http://www.w3.org/1999/02/22-rdf-syntax-ns#" xmlns:svg="http://www.w3.org/2000/svg" xmlns="http://www.w3.org/2000/svg" xmlns:xlink="http://www.w3.org/1999/xlink" xmlns:sodipodi="http://sodipodi.sourceforge.net/DTD/sodipodi-0.dtd" xmlns:inkscape="http://www.inkscape.org/namespaces/inkscape" viewBox="0 0 512.00001 640.0000124999999" version="1.1" x="0px" y="0px"><defs><pattern xlink:href="#a" patternTransform="translate(-2.0800781e-5,8.2031252e-6)"/><pattern xlink:href="#a" patternTransform="translate(-2.0800781e-5,8.2142982)"/><pattern xlink:href="#b" id="a" patternTransform="translate(1002.9788,-671.4934)"/><pattern patternUnits="userSpaceOnUse" width="428.3281" height="824.85398" patternTransform="translate(1568.6931,-662.92197)" id="b"><path d="M 0.75000092,1.2990402 427.5781,247.72677 0.75000092,1.2990402 Z m 0,16.4511698 L 427.5781,264.1799 0.75000092,17.75021 Z m 0,16.45313 L 427.5781,280.63107 0.75000092,34.20334 Z m 0,16.45117 L 427.5781,297.0842 0.75000092,50.65451 Z m 0,16.45312 L 427.5781,313.53537 0.75000092,67.10763 Z m 0,16.45118 L 427.5781,329.98849 0.75000092,83.55881 Z m 0,16.45312 L 427.5781,346.43967 0.75000092,100.01193 Z m 0,16.45117 L 427.5781,362.89279 0.75000092,116.4631 Z m 0,16.45313 L 427.5781,379.34396 0.75000092,132.91623 Z m 0,16.45312 L 427.5781,395.79709 0.75000092,149.36935 Z m 0,16.45118 L 427.5781,412.25021 0.75000092,165.82053 Z m 0,16.45312 L 427.5781,428.70138 0.75000092,182.27365 Z m 0,16.45117 L 427.5781,445.15451 0.75000092,198.72482 Z m 0,16.45313 L 427.5781,461.60564 0.75000092,215.17795 Z m 0,16.45117 L 427.5781,478.05884 0.75000092,231.62912 Z m 0,16.45312 L 427.5781,494.50994 0.75000092,248.08224 Z m 0,16.45118 L 427.5781,510.96314 0.75000092,264.53342 Z m 0,16.45312 L 427.5781,527.41424 0.75000092,280.98654 Z m 0,16.45313 L 427.5781,543.86744 0.75000092,297.43967 Z m 0,16.45117 L 427.5781,560.32054 0.75000092,313.89084 Z m 0,16.45312 L 427.5781,576.77174 0.75000092,330.34396 Z m 0,16.45117 L 427.5781,593.22484 0.75000092,346.79513 Z m 0,16.45313 L 427.5781,609.67604 0.75000092,363.24826 Z m 0,16.45117 L 427.5781,626.12914 0.75000092,379.69943 Z m 0,16.45313 L 427.5781,642.58034 0.75000092,396.15256 Z m 0,16.45312 L 427.5781,659.03344 0.75000092,412.60568 Z m 0,16.45117 L 427.5781,675.48464 0.75000092,429.05685 Z m 0,16.45313 L 427.5781,691.93774 0.75000092,445.50998 Z m 0,16.45116 L 427.5781,708.39084 0.75000092,461.96114 Z m 0,16.4531 L 427.5781,724.84204 0.75000092,478.41424 Z m 0,16.4512 L 427.5781,741.29514 0.75000092,494.86544 Z m 0,16.4531 L 427.5781,757.74634 0.75000092,511.31854 Z m 0,16.4512 L 427.5781,774.19944 0.75000092,527.76974 Z m 0,16.4531 L 427.5781,790.65064 0.75000092,544.22284 Z m 0,16.4532 L 427.5781,807.10374 0.75000092,560.67604 Z m 0,16.4511 L 427.5781,823.55494 0.75000092,577.12714 Z" style="" fill="none" stroke="#000000" stroke-width="3" stroke-linecap="butt" stroke-linejoin="miter" stroke-miterlimit="4" stroke-dasharray="none" stroke-opacity="1"/></pattern></defs><g transform="translate(0,-540.36216)"><path style="color:#000000;font-style:normal;font-variant:normal;font-weight:normal;font-stretch:normal;font-size:medium;line-height:normal;font-family:sans-serif;text-indent:0;text-align:start;text-decoration:none;text-decoration-line:none;text-decoration-style:solid;text-decoration-color:#000000;letter-spacing:normal;word-spacing:normal;text-transform:none;direction:ltr;block-progression:tb;writing-mode:lr-tb;baseline-shift:baseline;text-anchor:start;white-space:normal;clip-rule:nonzero;display:inline;overflow:visible;visibility:visible;opacity:1;isolation:auto;mix-blend-mode:normal;color-interpolation:sRGB;color-interpolation-filters:linearRGB;solid-color:#000000;solid-opacity:1;fill:#000000;fill-opacity:1;fill-rule:evenodd;stroke:none;stroke-width:2;stroke-linecap:butt;stroke-linejoin:miter;stroke-miterlimit:4;stroke-dasharray:none;stroke-dashoffset:0;stroke-opacity:1;color-rendering:auto;image-rendering:auto;shape-rendering:auto;text-rendering:auto;enable-background:accumulate" clip-path="none" d="M 92.792969 1 C 76.538969 1 63.142578 14.396441 63.142578 30.650391 L 63.142578 481.35156 C 63.142578 497.60556 76.538969 511 92.792969 511 L 419.20703 511 C 435.46103 511 448.85742 497.60556 448.85742 481.35156 L 448.85742 127.44336 L 446.01562 124.54688 L 324.80664 1 L 92.792969 1 z M 92.792969 20.863281 L 310.70508 20.863281 L 310.70508 111.28906 C 310.70508 127.66254 323.99953 141.43364 340.55273 141.43359 L 428.99414 141.43359 L 428.99414 481.35156 C 428.99414 486.94536 424.80083 491.13867 419.20703 491.13867 L 92.792969 491.13867 C 87.199169 491.13867 83.005859 486.94536 83.005859 481.35156 L 83.005859 30.650391 C 83.005859 25.056601 87.199169 20.863281 92.792969 20.863281 z M 330.56836 35.236328 L 415.26953 121.57031 L 340.55273 121.57031 C 335.25823 121.57033 330.56846 116.76328 330.56836 111.28906 L 330.56836 35.236328 z M 124.42188 47.574219 C 124.35287 47.574219 124.2858 47.584938 124.2168 47.585938 L 293.37305 145.24805 C 292.64965 144.11235 291.95757 142.95381 291.32227 141.75781 L 128.19531 47.576172 L 124.42188 47.576172 L 124.42188 47.574219 z M 139.51562 47.574219 L 287.71094 133.13672 C 287.42084 132.22392 287.15176 131.30063 286.91016 130.36523 L 143.51172 47.574219 L 139.51562 47.574219 z M 154.83398 47.574219 L 285.56445 123.05273 C 285.47245 122.24703 285.4017 121.43459 285.3457 120.61719 L 158.83008 47.574219 L 154.83398 47.574219 z M 170.15039 47.574219 L 285.20117 114 L 285.20117 111.69141 L 174.14844 47.574219 L 170.15039 47.574219 z M 185.46875 47.574219 L 285.20117 105.1543 L 285.20117 102.84961 L 189.4668 47.574219 L 185.46875 47.574219 z M 200.78711 47.574219 L 285.20117 96.3125 L 285.20117 94.003906 L 204.7832 47.574219 L 200.78711 47.574219 z M 216.10352 47.574219 L 285.20117 87.466797 L 285.20117 85.162109 L 220.10156 47.574219 L 216.10352 47.574219 z M 231.41992 47.574219 L 285.20117 78.625 L 285.20117 76.316406 L 235.41602 47.574219 L 231.41992 47.574219 z M 246.73828 47.574219 L 285.20117 69.783203 L 285.20117 67.474609 L 250.73438 47.574219 L 246.73828 47.574219 z M 262.05469 47.574219 L 285.20117 60.9375 L 285.20117 58.628906 L 266.05273 47.574219 L 262.05469 47.574219 z M 277.37109 47.574219 L 285.20117 52.095703 L 285.20117 49.787109 L 281.36914 47.574219 L 277.37109 47.574219 z M 116.61719 49.732422 C 115.98099 50.112122 115.36807 50.524734 114.79688 50.990234 L 402.80273 217.26953 L 402.80273 214.96289 L 313.89844 163.63281 C 311.79624 162.60021 309.77201 161.43804 307.84961 160.14062 L 116.61719 49.732422 z M 111.10938 55.400391 C 110.78628 55.982191 110.50557 56.590797 110.25977 57.216797 L 402.80273 226.11328 L 402.80273 223.80664 L 111.10938 55.400391 z M 109.19727 63.136719 L 109.19727 65.445312 L 402.80273 234.95703 L 402.80273 232.65039 L 109.19727 63.136719 z M 109.19727 71.978516 L 109.19727 74.287109 L 402.80273 243.80078 L 402.80273 241.49219 L 109.19727 71.978516 z M 109.19727 80.824219 L 109.19727 83.132812 L 393.25195 247.13086 L 397.25195 247.13086 L 109.19727 80.824219 z M 109.19727 89.666016 L 109.19727 91.974609 L 377.93555 247.13086 L 381.93359 247.13086 L 109.19727 89.666016 z M 109.19727 98.511719 L 109.19727 100.82031 L 362.61719 247.13086 L 366.61523 247.13086 L 109.19727 98.511719 z M 109.19727 107.35352 L 109.19727 109.66211 L 347.29883 247.13086 L 351.29883 247.13086 L 109.19727 107.35352 z M 109.19727 116.19922 L 109.19727 118.50781 L 331.98438 247.13086 L 335.98047 247.13086 L 109.19727 116.19922 z M 109.19727 125.04102 L 109.19727 127.34961 L 316.66602 247.13086 L 320.66211 247.13086 L 109.19727 125.04102 z M 109.19727 133.88672 L 109.19727 136.19531 L 301.34766 247.13086 L 305.34375 247.13086 L 109.19727 133.88672 z M 109.19727 142.72852 L 109.19727 145.03711 L 286.03125 247.13086 L 290.02734 247.13086 L 109.19727 142.72852 z M 109.19727 151.57031 L 109.19727 153.87891 L 270.71484 247.13086 L 274.71289 247.13086 L 109.19727 151.57031 z M 109.19727 160.41602 L 109.19727 162.72461 L 255.39453 247.13086 L 259.39258 247.13086 L 109.19727 160.41602 z M 334.31641 168.88672 L 402.80273 208.42578 L 402.80273 206.12109 L 338.4375 168.95703 L 337.0957 168.95703 C 336.1621 168.95703 335.23631 168.93332 334.31641 168.88672 z M 349.75586 168.95703 L 402.80273 199.58398 L 402.80273 197.27539 L 353.75391 168.95703 L 349.75586 168.95703 z M 365.07422 168.95703 L 402.80273 190.74023 L 402.80273 188.43359 L 369.07031 168.95703 L 365.07422 168.95703 z M 380.39062 168.95703 L 402.80273 181.89648 L 402.80273 179.58789 L 384.38867 168.95703 L 380.39062 168.95703 z M 395.70898 168.95703 L 402.80273 173.05273 L 402.80273 170.74609 L 399.70703 168.95703 L 395.70898 168.95703 z M 109.19727 169.25781 L 109.19727 171.56641 L 240.07812 247.13086 L 244.07617 247.13086 L 109.19727 169.25781 z M 109.19727 178.10352 L 109.19727 180.41211 L 224.75781 247.13086 L 228.75781 247.13086 L 109.19727 178.10352 z M 109.19727 186.94531 L 109.19727 189.25391 L 209.44336 247.13086 L 213.44141 247.13086 L 109.19727 186.94531 z M 109.19727 195.79102 L 109.19727 198.09961 L 194.12305 247.13086 L 198.12109 247.13086 L 109.19727 195.79102 z M 109.19727 204.63281 L 109.19727 206.94141 L 178.80859 247.13086 L 182.80664 247.13086 L 109.19727 204.63281 z M 109.19727 213.47852 L 109.19727 215.78516 L 163.49023 247.13086 L 167.48438 247.13086 L 109.19727 213.47852 z M 109.19727 222.32031 L 109.19727 224.62891 L 148.17188 247.13086 L 152.16992 247.13086 L 109.19727 222.32031 z M 109.19727 231.16211 L 109.19727 233.47266 L 132.85352 247.13086 L 136.85547 247.13086 L 109.19727 231.16211 z M 109.19727 240.00586 L 109.19727 242.31641 L 117.53711 247.13086 L 121.53906 247.13086 L 109.19727 240.00586 z M 257.76953 281.52344 L 257.76953 296.66016 L 299.45703 296.66016 L 252.46094 354.70312 L 252.46094 371 L 325.15234 371 L 325.15234 355.92383 L 274.25 355.92383 L 323.26172 295.56055 L 323.26172 281.52344 L 257.76953 281.52344 z M 186.84766 282.74414 L 186.84766 298.67383 L 225.84766 298.67383 C 217.79102 308.80566 211.34212 320.30013 206.5 333.1582 C 201.69857 346.01628 199.15592 358.63021 198.87109 371 L 215.41211 371 C 215.37142 363.10612 216.65365 354.1543 219.25781 344.14453 C 221.90267 334.09408 225.72559 324.61426 230.73047 315.70312 C 235.73535 306.79199 240.65983 299.95605 245.50195 295.19531 L 245.50195 282.74414 L 186.84766 282.74414 z M 117.2207 406.13086 L 218.1875 464.42578 L 222.18555 464.42578 L 121.2168 406.13086 L 117.2207 406.13086 z M 132.53906 406.13086 L 233.50586 464.42578 L 237.50391 464.42578 L 136.53516 406.13086 L 132.53906 406.13086 z M 147.85352 406.13086 L 248.82227 464.42578 L 252.81836 464.42578 L 151.85156 406.13086 L 147.85352 406.13086 z M 163.16992 406.13086 L 264.13867 464.42578 L 268.13672 464.42578 L 167.16992 406.13086 L 163.16992 406.13086 z M 178.48828 406.13086 L 279.45703 464.42578 L 283.45508 464.42578 L 182.48633 406.13086 L 178.48828 406.13086 z M 193.80469 406.13086 L 294.77344 464.42578 L 298.77148 464.42578 L 197.80469 406.13086 L 193.80469 406.13086 z M 209.12305 406.13086 L 310.0918 464.42578 L 314.08789 464.42578 L 213.12109 406.13086 L 209.12305 406.13086 z M 224.44141 406.13086 L 325.4082 464.42578 L 329.40625 464.42578 L 228.43945 406.13086 L 224.44141 406.13086 z M 239.75781 406.13086 L 340.72656 464.42578 L 344.72461 464.42578 L 243.75586 406.13086 L 239.75781 406.13086 z M 255.07617 406.13086 L 356.04492 464.42578 L 360.04102 464.42578 L 259.07422 406.13086 L 255.07617 406.13086 z M 270.39453 406.13086 L 371.36328 464.42578 L 375.35938 464.42578 L 274.39258 406.13086 L 270.39453 406.13086 z M 285.70898 406.13086 L 386.67969 464.42578 L 387.57617 464.42578 C 388.48967 464.42578 389.37965 464.32888 390.24805 464.17578 L 289.71094 406.13086 L 285.70898 406.13086 z M 301.02734 406.13086 L 396.71289 461.375 C 397.27969 460.9498 397.82497 460.49489 398.32617 459.99609 L 305.0293 406.13086 L 301.02734 406.13086 z M 316.3457 406.13086 L 401.52539 455.30859 C 401.79489 454.69151 402.02003 454.05159 402.20703 453.39453 L 320.34375 406.13086 L 316.3457 406.13086 z M 331.66211 406.13086 L 402.80273 447.20312 L 402.80273 444.89453 L 335.66211 406.13086 L 331.66211 406.13086 z M 346.98047 406.13086 L 402.80273 438.35938 L 402.80273 436.05078 L 350.98047 406.13086 L 346.98047 406.13086 z M 362.29883 406.13086 L 402.80273 429.51562 L 402.80273 427.20703 L 366.29688 406.13086 L 362.29883 406.13086 z M 377.61719 406.13086 L 402.80273 420.67188 L 402.80273 418.36328 L 381.61523 406.13086 L 377.61719 406.13086 z M 392.93555 406.13086 L 402.80273 411.82812 L 402.80273 409.51953 L 396.93359 406.13086 L 392.93555 406.13086 z M 109.19727 408.03516 L 109.19727 410.3418 L 202.87109 464.42578 L 206.86719 464.42578 L 109.19727 408.03516 z M 109.19727 416.87891 L 109.19727 419.18555 L 187.55273 464.42578 L 191.54883 464.42578 L 109.19727 416.87891 z M 109.19727 425.72266 L 109.19727 428.0293 L 172.23438 464.42578 L 176.23242 464.42578 L 109.19727 425.72266 z M 109.19727 434.56641 L 109.19727 436.87305 L 156.91602 464.42578 L 160.91406 464.42578 L 109.19727 434.56641 z M 109.19727 443.41016 L 109.19727 445.7168 L 141.59961 464.42578 L 145.59766 464.42578 L 109.19727 443.41016 z M 109.55273 452.45703 C 109.76613 453.44144 110.07224 454.3887 110.46484 455.29102 L 126.28125 464.42578 L 130.2793 464.42578 L 109.55273 452.45703 z " transform="translate(0,540.36216)"/></g><text x="0" y="527.00001" fill="#000000" font-size="5px" font-weight="bold" font-family="'Helvetica Neue', Helvetica, Arial-Unicode, Arial, Sans-serif">Created by Ali Coşkun</text><text x="0" y="532.00001" fill="#000000" font-size="5px" font-weight="bold" font-family="'Helvetica Neue', Helvetica, Arial-Unicode, Arial, Sans-serif">from the Noun Project</text></svg>