<svg xmlns="http://www.w3.org/2000/svg" data-name="Слой 1" viewBox="0 0 100 125" x="0px" y="0px"><title>tree_16</title><path d="M71.55,43.1a12.54,12.54,0,0,0,1.67-6.25,12.68,12.68,0,0,0-10-12.32,13.49,13.49,0,0,0-26.51,0,12.68,12.68,0,0,0-10,12.32,12.54,12.54,0,0,0,1.67,6.25A16,16,0,0,0,36,73.18H48V86.38H39.58a2,2,0,1,0,0,4H60.42a2,2,0,0,0,0-4H52V73.18H64A16,16,0,0,0,71.55,43.1ZM64,69.18H52V55l9-9a2,2,0,0,0-2.83-2.83L52,49.34V34.39a2,2,0,0,0-4,0V58L42.07,52a2,2,0,0,0-2.83,2.83L48,63.62v5.56H36a12,12,0,0,1-3.85-23.35l2.88-1-2-2.26a8.59,8.59,0,0,1,5.69-14.32l1.72-.14.12-1.72a9.49,9.49,0,0,1,18.94,0l.12,1.72,1.72.14A8.59,8.59,0,0,1,67,42.61l-2,2.26,2.88,1A12,12,0,0,1,64,69.18Z"/><text x="0" y="115" fill="#000000" font-size="5px" font-weight="bold" font-family="'Helvetica Neue', Helvetica, Arial-Unicode, Arial, Sans-serif">Created by Dilla Chee</text><text x="0" y="120" fill="#000000" font-size="5px" font-weight="bold" font-family="'Helvetica Neue', Helvetica, Arial-Unicode, Arial, Sans-serif">from the Noun Project</text></svg>