<svg xmlns="http://www.w3.org/2000/svg" xmlns:xlink="http://www.w3.org/1999/xlink" version="1.1" x="0px" y="0px" viewBox="0 0 100 125" style="enable-background:new 0 0 100 100;" xml:space="preserve"><g><path d="M75,80c2.8,0,5-2.2,5-5c0-11.6-6.7-22.1-17-27c2.5-3,4-6.8,4-10.9c0-9.4-7.6-17-17-17s-17,7.6-17,17c0,4.2,1.5,8,4,10.9   c-10.3,5-17,15.4-17,27c0,2.8,2.2,5,5,5H75z M50,24c7.2,0,13,5.8,13,13s-5.8,13-13,13s-13-5.8-13-13S42.8,24,50,24z M24,75   c0-10.6,6.5-20.1,16.2-24.1c2.8,2,6.1,3.1,9.8,3.1c3.6,0,7-1.2,9.8-3.1C69.5,54.9,76,64.4,76,75c0,0.6-0.4,1-1,1H25   C24.4,76,24,75.5,24,75z"/></g><text x="0" y="115" fill="#000000" font-size="5px" font-weight="bold" font-family="'Helvetica Neue', Helvetica, Arial-Unicode, Arial, Sans-serif">Created by Genius Icons</text><text x="0" y="120" fill="#000000" font-size="5px" font-weight="bold" font-family="'Helvetica Neue', Helvetica, Arial-Unicode, Arial, Sans-serif">from the Noun Project</text></svg>