<svg xmlns:figma="http://www.figma.com/figma/ns" xmlns="http://www.w3.org/2000/svg" xmlns:xlink="http://www.w3.org/1999/xlink" version="1.1" x="0px" y="0px" viewBox="0 0 50 62.5" style="enable-background:new 0 0 50 50;" xml:space="preserve"><path d="M26,0c-6.8,0-12.4,5.6-12.4,12.4c0,1.1,0.9,2,2,2s2-0.9,2-2C17.6,7.8,21.3,4,26,4c4.6,0,8.5,3.9,8.5,8.6  c0,4.5-1.6,5.6-4,7.3c-0.5,0.3-0.9,0.7-1.4,1c-4.9,3.7-7,9.6-6.2,17c0.1,1,1,1.8,2,1.8c0.1,0,0.1,0,0.2,0c1.1-0.1,1.9-1.1,1.8-2.2  c-0.7-6,0.9-10.5,4.7-13.4c0.4-0.3,0.8-0.6,1.3-0.9c2.5-1.8,5.7-4,5.7-10.6C38.4,5.6,32.8,0,26,0z"/><circle cx="25" cy="46" r="4"/><text x="0" y="65" fill="#000000" font-size="5px" font-weight="bold" font-family="'Helvetica Neue', Helvetica, Arial-Unicode, Arial, Sans-serif">Created by Camilo Núñez</text><text x="0" y="70" fill="#000000" font-size="5px" font-weight="bold" font-family="'Helvetica Neue', Helvetica, Arial-Unicode, Arial, Sans-serif">from the Noun Project</text></svg>