<svg xmlns="http://www.w3.org/2000/svg" xmlns:xlink="http://www.w3.org/1999/xlink" xml:space="preserve" version="1.1" style="shape-rendering:geometricPrecision;text-rendering:geometricPrecision;image-rendering:optimizeQuality;" viewBox="0 0 346 426.25" x="0px" y="0px" fill-rule="evenodd" clip-rule="evenodd"><defs><style type="text/css">
   
    .fil0 {fill:black;fill-rule:nonzero}
   
  </style></defs><g><path class="fil0" d="M173 87c49,0 88,40 88,89 0,48 -39,88 -88,88 -49,0 -88,-40 -88,-88 0,-49 39,-89 88,-89zm0 20c-38,0 -68,31 -68,69 0,37 30,68 68,68 38,0 68,-31 68,-68 0,-38 -30,-69 -68,-69z"/><path class="fil0" d="M163 10c0,-6 4,-10 10,-10 6,0 10,4 10,10l0 55c0,6 -4,10 -10,10 -6,0 -10,-4 -10,-10l0 -55z"/><path class="fil0" d="M59 55c-4,-4 -3,-10 1,-14 4,-3 11,-3 14,1l36 43c3,4 3,10 -2,14 -4,3 -10,3 -14,-2l-35 -42z"/><path class="fil0" d="M8 157c-5,-1 -9,-7 -8,-12 1,-5 6,-9 12,-8l54 10c5,0 9,6 8,11 -1,6 -6,9 -11,8l-55 -9z"/><path class="fil0" d="M35 267c-5,3 -11,1 -14,-4 -3,-5 -1,-11 4,-13l47 -28c5,-3 11,-1 14,4 3,5 1,11 -4,13l-47 28z"/><path class="fil0" d="M126 334c-2,6 -8,8 -13,6 -5,-1 -8,-7 -6,-12l19 -52c2,-5 7,-8 13,-6 5,2 8,7 6,13l-19 51z"/><path class="fil0" d="M239 328c2,5 -1,11 -6,12 -5,2 -11,0 -13,-6l-19 -51c-1,-6 1,-11 6,-13 6,-2 11,1 13,6l19 52z"/><path class="fil0" d="M321 250c5,2 7,9 4,13 -3,5 -9,7 -14,4l-47 -28c-5,-2 -7,-9 -4,-13 3,-5 9,-7 14,-4l47 28z"/><path class="fil0" d="M334 137c6,-1 11,3 12,8 1,5 -3,11 -8,12l-55 9c-5,1 -10,-3 -11,-8 -1,-5 3,-11 8,-12l54 -9z"/><path class="fil0" d="M272 42c3,-4 10,-4 14,-1 4,4 5,10 1,14l-35 42c-4,5 -10,5 -14,2 -5,-4 -5,-10 -2,-14l36 -43z"/></g><text x="0" y="356" fill="#000000" font-size="5px" font-weight="bold" font-family="'Helvetica Neue', Helvetica, Arial-Unicode, Arial, Sans-serif">Created by Saifurrijal</text><text x="0" y="361" fill="#000000" font-size="5px" font-weight="bold" font-family="'Helvetica Neue', Helvetica, Arial-Unicode, Arial, Sans-serif">from the Noun Project</text></svg>